# xmcd
#
# Track frame offsets: 
#        150
#        17615
#        34417
#        47230
#        61752
#        82927
#        96349
#        112354
#        125934
#        144259
#        164026
#        179626
#        193273
#        209341
#        227106
#        240929
#        256304
#        268002
#        287430
#        312907
#
# Disc length: 4386 seconds
#
# Revision: 0
# Processed by: cddbd v1.5.2PL0 Copyright (c) Steve Scherf et al.
# Submitted via: ExactAudioCopy v0.99pb4
#
DISCID=2d112014
DTITLE=Various Artist - Billboard 1974
DYEAR=2000
DGENRE=Other
TTITLE0=Nazareth - Love Hurts
TTITLE1=Bread - The Guitar Man
TTITLE2=The Carpenters - Please Mr. Postman
TTITLE3=Terry Jacks - Seasons in the Sun
TTITLE4=Santana - Samba Pa' Ti
TTITLE5=Grand Funk Railroad - The Locomotion
TTITLE6=Supertramp - Dreamer
TTITLE7=Gloria Gaynor - Never Can Say Goodbye
TTITLE8=The Hollies - The Air That I Breathe
TTITLE9=Eric Clapton - I Shot the Sheriff
TTITLE10=America - Tin Man
TTITLE11=Queen - Killer Queen
TTITLE12=Bachman-Turner Overdrive - You Ain't Seen Nothing Yet
TTITLE13=Status Quo - Down Down
TTITLE14=George McRae - Rock Your Baby
TTITLE15=Barry White - You're the First, the Last, My Everything
TTITLE16=Paul Anka - (You're) Having My Baby
TTITLE17=Bad Company - Can't Get Enough
TTITLE18=Elton John - Don't Let the Sun Go Down on Me
TTITLE19=Lynyrd Skynyrd - Sweet Home Alabama
EXTD=
EXTT0=
EXTT1=
EXTT2=
EXTT3=
EXTT4=
EXTT5=
EXTT6=
EXTT7=
EXTT8=
EXTT9=
EXTT10=
EXTT11=
EXTT12=
EXTT13=
EXTT14=
EXTT15=
EXTT16=
EXTT17=
EXTT18=
EXTT19=
PLAYORDER=
